<svg xmlns="http://www.w3.org/2000/svg" width="1440" height="50" viewBox="0 0 1440 50" preserveAspectRatio="none"><path fill="#f7f7f4" d="M0 0H1440V15Q1420 2 1400 15T1350 16Q1330 6 1310 17T1260 19Q1240 10 1235 27Q1234 40 1222 36Q1216 41 1216 26Q1206 12 1190 19T1140 16Q1120 13 1100 21T1050 17Q1027 6 1010 19Q1004 20 1002 34Q997 53 986 41Q980 35 980 23Q969 12 951 21T904 18Q880 4 860 16T810 15Q791 10 786 28Q780 37 769 32Q765 24 765 18Q740 8 720 20T670 21Q650 13 630 19T580 16Q561 3 549 28Q544 42 532 35Q527 33 526 23Q519 15 500 20T453 20Q430 8 411 20T365 20Q342 10 325 18T277 19Q260 6 254 24Q249 34 240 30Q235 31 235 21Q212 12 191 21T140 16Q119 5 105 25Q102 39 89 32Q84 25 84 20Q72 8 52 18T0 13Z"/></svg>
