<svg xmlns="http://www.w3.org/2000/svg" width="1440" height="120" viewBox="0 0 1440 120" preserveAspectRatio="none"><g transform="translate(0,20)"><g class="melt-backing" transform="translate(0,-14)"><rect x="0" y="-300" width="1440" height="300" fill="#0b0b0b"/><path fill="#0b0b0b" d="M0 0H1440V41Q1419 35 1404 43Q1389 34 1388 49Q1388 72 1368 61Q1358 53 1361 42Q1339 31 1317 42T1268 36Q1257 27 1252 42Q1252 56 1235 55Q1228 59 1226 46Q1211 32 1192 41T1141 58Q1127 25 1115 45Q1105 69 1093 58Q1085 79 1087 57Q1058 22 1034 35T980 37Q959 27 946 47Q939 57 928 50Q926 36 917 36Q890 33 865 41T813 38Q794 32 789 46Q785 54 772 49Q768 48 767 38Q743 33 716 42T664 36Q641 31 620 42T571 39Q556 34 552 53Q550 63 533 57Q525 91 527 66Q522 25 500 37T448 34Q426 29 410 40T361 42Q345 28 333 48Q327 63 313 55Q307 54 308 43Q280 31 258 41T212 36Q189 22 173 41T127 39Q104 27 95 43Q89 90 76 71Q70 54 70 43Q52 26 41 43Q39 64 19 67Q5 95 0 72Z"/></g><path fill="#ffe500" d="M0 0H1440V41Q1419 35 1404 43Q1389 34 1388 49Q1388 72 1368 61Q1358 53 1361 42Q1339 31 1317 42T1268 36Q1257 27 1252 42Q1252 56 1235 55Q1228 59 1226 46Q1211 32 1192 41T1141 58Q1127 25 1115 45Q1105 69 1093 58Q1085 79 1087 57Q1058 22 1034 35T980 37Q959 27 946 47Q939 57 928 50Q926 36 917 36Q890 33 865 41T813 38Q794 32 789 46Q785 54 772 49Q768 48 767 38Q743 33 716 42T664 36Q641 31 620 42T571 39Q556 34 552 53Q550 63 533 57Q525 91 527 66Q522 25 500 37T448 34Q426 29 410 40T361 42Q345 28 333 48Q327 63 313 55Q307 54 308 43Q280 31 258 41T212 36Q189 22 173 41T127 39Q104 27 95 43Q89 90 76 71Q70 54 70 43Q52 26 41 43Q39 64 19 67Q5 95 0 72Z"/></g><path fill="#0b0b0b" d="M0 0H1440V41Q1420 37 1404 44Q1388 38 1388 51Q1384 70 1368 60Q1359 48 1361 39Q1342 24 1317 38T1271 35Q1258 28 1252 42Q1246 109 1235 87Q1227 55 1226 43Q1214 25 1192 37T1144 37Q1124 19 1115 41Q1110 66 1093 57Q1087 51 1087 40Q1062 75 1034 67T981 35Q963 26 946 46Q939 52 928 47Q922 37 917 37Q891 84 865 72T811 37Q791 32 789 46Q782 56 772 50Q765 49 767 39Q739 31 716 41T663 38Q636 30 620 41T568 38Q558 34 552 53Q550 68 533 60Q529 57 527 45Q521 28 500 39T450 70Q424 28 410 39T360 38Q345 28 333 48Q330 62 313 54Q310 93 308 67Q280 22 258 35T213 36Q192 22 173 41T123 38Q108 79 95 74Q88 58 76 52Q70 52 70 41Q53 26 41 43Q36 64 19 67Q2 70 0 58Z"/></svg>